<?xml version="1.0" encoding="UTF-8"?>
<svg xmlns="http://www.w3.org/2000/svg" width="512" height="512" viewBox="0 0 512 512" role="img" aria-label="Doggerz realistic dog placeholder">
  <defs>
    <radialGradient id="g" cx="50%" cy="35%" r="70%">
      <stop offset="0%" stop-color="#34d399" stop-opacity="0.35"/>
      <stop offset="55%" stop-color="#0a0a0a" stop-opacity="0.0"/>
      <stop offset="100%" stop-color="#000" stop-opacity="0.0"/>
    </radialGradient>
    <linearGradient id="fur" x1="0" y1="0" x2="1" y2="1">
      <stop offset="0%" stop-color="#2a2a2a"/>
      <stop offset="55%" stop-color="#171717"/>
      <stop offset="100%" stop-color="#0b0b0b"/>
    </linearGradient>
  </defs>

  <!-- soft glow backdrop -->
  <rect x="0" y="0" width="512" height="512" fill="url(#g)"/>

  <!-- simple “realistic-ish” dog head silhouette placeholder -->
  <g fill="none" stroke-linecap="round" stroke-linejoin="round">
    <!-- ears -->
    <path d="M156 170c-28 6-46 26-54 48-8 22-6 46 10 60 14 13 35 9 52-3" stroke="#0b0b0b" stroke-width="28"/>
    <path d="M356 170c28 6 46 26 54 48 8 22 6 46-10 60-14 13-35 9-52-3" stroke="#0b0b0b" stroke-width="28"/>

    <!-- head outline -->
    <path d="M168 184c-30 30-46 70-46 112 0 86 60 156 134 156s134-70 134-156c0-42-16-82-46-112" stroke="url(#fur)" stroke-width="34"/>

    <!-- muzzle -->
    <path d="M196 326c18 34 56 56 60 56s42-22 60-56" stroke="#101010" stroke-width="26"/>

    <!-- nose -->
    <path d="M242 342c6 6 14 9 14 9s8-3 14-9" stroke="#0a0a0a" stroke-width="22"/>

    <!-- eyes -->
    <path d="M214 292c10-8 22-8 32 0" stroke="#0f0f0f" stroke-width="14"/>
    <path d="M266 292c10-8 22-8 32 0" stroke="#0f0f0f" stroke-width="14"/>

    <!-- little highlight dots -->
    <circle cx="234" cy="294" r="4" fill="#34d399" opacity="0.55"/>
    <circle cx="278" cy="294" r="4" fill="#34d399" opacity="0.55"/>
  </g>

  <!-- label -->
  <g font-family="ui-sans-serif, system-ui, -apple-system, Segoe UI, Roboto, Arial" text-anchor="middle">
    <text x="256" y="482" font-size="18" fill="#a3a3a3">Replace: public/assets/dogs/realistic/dog.svg</text>
  </g>
</svg>
