<?xml version="1.0" encoding="UTF-8"?>
<svg xmlns="http://www.w3.org/2000/svg" width="512" height="512" viewBox="0 0 512 512" role="img" aria-label="Doggerz logo">
  <title>Doggerz</title>
  <!-- Simple, original mark: a friendly dog face made from basic shapes. -->
  <g fill="none" stroke="none">
    <!-- Ears -->
    <path d="M132 170 C110 120, 126 70, 176 56 C188 52, 202 60, 204 74 C210 120, 198 150, 184 182 Z" fill="#10b981"/>
    <path d="M380 170 C402 120, 386 70, 336 56 C324 52, 310 60, 308 74 C302 120, 314 150, 328 182 Z" fill="#10b981"/>

    <!-- Head -->
    <circle cx="256" cy="272" r="172" fill="#10b981"/>

    <!-- Muzzle -->
    <path d="M160 312 C160 248, 208 208, 256 208 C304 208, 352 248, 352 312 C352 380, 308 428, 256 428 C204 428, 160 380, 160 312 Z" fill="#ecfeff" opacity="0.92"/>

    <!-- Eyes -->
    <circle cx="206" cy="260" r="14" fill="#020617"/>
    <circle cx="306" cy="260" r="14" fill="#020617"/>

    <!-- Nose -->
    <path d="M256 292 C236 292, 220 306, 220 324 C220 346, 240 360, 256 360 C272 360, 292 346, 292 324 C292 306, 276 292, 256 292 Z" fill="#020617"/>

    <!-- Smile -->
    <path d="M220 366 C230 392, 250 406, 256 406 C262 406, 282 392, 292 366" stroke="#020617" stroke-width="14" stroke-linecap="round"/>
  </g>
</svg>
